# xmcd
#
# Track frame offsets: 
#        182
#        8490
#        16840
#        24557
#        34170
#        42302
#        54135
#        69657
#        81100
#        93560
#        103795
#        117202
#        128290
#        142085
#        153622
#        165875
#        179565
#        196052
#        205947
#        222937
#        237955
#        254320
#        267415
#        278282
#        289275
#
# Disc length: 4020 seconds
#
# Revision: 35
# Processed by: cddbd v1.5.2PL0 Copyright (c) Steve Scherf et al.
# Submitted via: ExactAudioCopyFreeDBPlugin 1.0
#
DISCID=540fb219
DTITLE=The Rolling Stones - Singles Collection (The London Years) CD 1
DYEAR=1989
DGENRE=Rock
TTITLE0=Come On (1963)
TTITLE1=I Want To Be Loved (1963)
TTITLE2=I Wanna Be Your Man (1963)
TTITLE3=Stoned (1963)
TTITLE4=Not Fade Away (1964)
TTITLE5=Little By Little (1964)
TTITLE6=It's All Over Now (1964)
TTITLE7=Good Times, Bad Times (1964)
TTITLE8=Tell Me (1964)
TTITLE9=I Just Want To Make Love To You (1964)
TTITLE10=Time Is On My Side (1964)
TTITLE11=Congratulations (1964)
TTITLE12=Little Red Rooster (1964)
TTITLE13=Off The Hook (1964)
TTITLE14=Heart Of Stone (1965)
TTITLE15=What A Shame (1965)
TTITLE16=The Last Time (1965)
TTITLE17=Play With Fire (1965)
TTITLE18=(I Can't Get No) Satisfaction (1965)
TTITLE19=The Under Assistant West Coast Promotion Man (1965)
TTITLE20=The Spider And The Fly (1965)
TTITLE21=Get Off Of My Cloud (1965)
TTITLE22=I'm Free (1965)
TTITLE23=The Singer Not The Song (1965)
TTITLE24=As Tears Go By (1965)
EXTD=YEAR: 1986
EXTT0=
EXTT1=
EXTT2=
EXTT3=
EXTT4=
EXTT5=
EXTT6=
EXTT7=
EXTT8=
EXTT9=
EXTT10=
EXTT11=
EXTT12=
EXTT13=
EXTT14=
EXTT15=
EXTT16=
EXTT17=
EXTT18=
EXTT19=
EXTT20=
EXTT21=
EXTT22=
EXTT23=
EXTT24=
PLAYORDER=
